<svg width="6" height="10" viewBox="0 0 6 10" fill="none" xmlns="http://www.w3.org/2000/svg">
<path d="M6 5C6 4.85599 5.94478 4.72926 5.82822 4.61982L0.963189 0.15553C0.858895 0.0518441 0.723926 4.61249e-07 0.564416 4.75194e-07C0.245398 5.03083e-07 -8.54588e-07 0.224655 -8.28401e-07 0.524193C-8.15308e-07 0.673963 0.0674841 0.800692 0.165643 0.898618L4.6319 5L0.165644 9.10138C0.0674848 9.19931 -5.84161e-08 9.3318 -4.58265e-08 9.47581C-1.96399e-08 9.77535 0.245399 10 0.564417 10C0.723927 10 0.858896 9.94816 0.96319 9.85023L5.82822 5.38018C5.94478 5.2765 6 5.14401 6 5Z" fill="#8059EE"/>
</svg>
