<svg width="6" height="10" viewBox="0 0 6 10" fill="none" xmlns="http://www.w3.org/2000/svg">
<path d="M4.37114e-07 5C4.49704e-07 4.85599 0.0552152 4.72926 0.17178 4.61982L5.03681 0.15553C5.14111 0.0518441 5.27607 4.61249e-07 5.43558 4.75194e-07C5.7546 5.03083e-07 6 0.224655 6 0.524193C6 0.673963 5.93252 0.800692 5.83436 0.898618L1.3681 5L5.83436 9.10138C5.93252 9.19931 6 9.3318 6 9.47581C6 9.77535 5.7546 10 5.43558 10C5.27607 10 5.1411 9.94816 5.03681 9.85023L0.17178 5.38018C0.0552151 5.2765 4.24524e-07 5.14401 4.37114e-07 5Z" fill="#8059EE"/>
</svg>
