<svg width="26" height="22" viewBox="0 0 26 22" fill="none" xmlns="http://www.w3.org/2000/svg">
<path d="M7.75012 3C7.75012 2.30964 8.30977 1.75 9.00012 1.75V0.25C7.48134 0.25 6.25012 1.48122 6.25012 3H7.75012ZM3 4.75006H6.00012V3.25006H3V4.75006ZM1.75 6.00006C1.75 5.30971 2.30964 4.75006 3 4.75006V3.25006C1.48122 3.25006 0.25 4.48128 0.25 6.00006H1.75ZM1.75 18.5001V6.00006H0.25V18.5001H1.75ZM3 19.7501C2.30964 19.7501 1.75 19.1904 1.75 18.5001H0.25C0.25 20.0188 1.48122 21.2501 3 21.2501V19.7501ZM23 19.7501H3V21.2501H23V19.7501ZM24.25 18.5001C24.25 19.1904 23.6904 19.7501 23 19.7501V21.2501C24.5188 21.2501 25.75 20.0188 25.75 18.5001H24.25ZM24.25 6.00006V18.5001H25.75V6.00006H24.25ZM23 4.75006C23.6904 4.75006 24.25 5.3097 24.25 6.00006H25.75C25.75 4.48128 24.5188 3.25006 23 3.25006V4.75006ZM20.0001 4.75006H23V3.25006H20.0001V4.75006ZM17.0001 1.75C17.6905 1.75 18.2501 2.30964 18.2501 3H19.7501C19.7501 1.48122 18.5189 0.25 17.0001 0.25V1.75ZM9.00012 1.75H17.0001V0.25H9.00012V1.75ZM20.0001 3.25006C19.8621 3.25006 19.7501 3.13813 19.7501 3H18.2501C18.2501 3.96644 19.0336 4.75006 20.0001 4.75006V3.25006ZM6.25012 3C6.25012 3.13813 6.13813 3.25006 6.00012 3.25006V4.75006C6.96668 4.75006 7.75012 3.96644 7.75012 3H6.25012Z" fill="#8059EE"/>
<circle cx="12.9998" cy="11.4999" r="4.5" stroke="#8059EE" stroke-width="1.5"/>
</svg>
