<svg width="24" height="20" viewBox="0 0 24 20" fill="none" xmlns="http://www.w3.org/2000/svg">
<mask id="path-1-inside-1_10475_1011" fill="white">
<path fill-rule="evenodd" clip-rule="evenodd" d="M8 0C6.89543 0 6 0.89543 6 2C6 2.55228 5.55228 3 5 3H2C0.895431 3 0 3.89543 0 5V17.5C0 18.6046 0.89543 19.5 2 19.5H22C23.1046 19.5 24 18.6046 24 17.5V5C24 3.89543 23.1046 3 22 3H19C18.4477 3 18 2.55228 18 2C18 0.895431 17.1046 0 16 0H8Z"/>
</mask>
<path d="M5.5 2C5.5 2.04201 5.49493 2.08214 5.4856 2.12011L6.45672 2.3587C6.48508 2.24326 6.5 2.12303 6.5 2H5.5ZM5.12011 2.4856C5.08214 2.49493 5.04201 2.5 5 2.5V3.5C5.12303 3.5 5.24326 3.48508 5.3587 3.45672L5.12011 2.4856ZM5 2.5H4.53846V3.5H5V2.5ZM2.46154 2.5H2V3.5H2.46154V2.5ZM2 2.5C1.79445 2.5 1.59403 2.52491 1.40189 2.57212L1.64048 3.54324C1.75515 3.51507 1.87547 3.5 2 3.5V2.5ZM-0.427879 4.40189C-0.475087 4.59403 -0.5 4.79445 -0.5 5H0.5C0.5 4.87547 0.515067 4.75515 0.543241 4.64048L-0.427879 4.40189ZM-0.5 5V6.92308H0.5V5H-0.5ZM-0.5 15.5769V17.5H0.5V15.5769H-0.5ZM-0.5 17.5C-0.5 18.8807 0.619287 20 2 20V19C1.17157 19 0.5 18.3284 0.5 17.5H-0.5ZM2 20H3.53846V19H2V20ZM10.4615 20H13.5385V19H10.4615V20ZM20.4615 20H22V19H20.4615V20ZM22 20C23.3807 20 24.5 18.8807 24.5 17.5H23.5C23.5 18.3284 22.8284 19 22 19V20ZM24.5 17.5V15.5769H23.5V17.5H24.5ZM24.5 6.92308V5H23.5V6.92308H24.5ZM24.5 5C24.5 4.79445 24.4751 4.59403 24.4279 4.40189L23.4568 4.64048C23.4849 4.75515 23.5 4.87547 23.5 5H24.5ZM22.5981 2.57212C22.406 2.52491 22.2056 2.5 22 2.5V3.5C22.1245 3.5 22.2448 3.51507 22.3595 3.54324L22.5981 2.57212ZM22 2.5H21.5385V3.5H22V2.5ZM19.4615 2.5H19V3.5H19.4615V2.5ZM19 2.5C18.958 2.5 18.9179 2.49493 18.8799 2.4856L18.6413 3.45672C18.7567 3.48508 18.877 3.5 19 3.5V2.5ZM18.5144 2.12011C18.5051 2.08214 18.5 2.04201 18.5 2H17.5C17.5 2.12303 17.5149 2.24326 17.5433 2.3587L18.5144 2.12011ZM18.5 2C18.5 1.79445 18.4751 1.59403 18.4279 1.40189L17.4568 1.64048C17.4849 1.75515 17.5 1.87547 17.5 2H18.5ZM16.5981 -0.427879C16.406 -0.475087 16.2056 -0.5 16 -0.5V0.5C16.1245 0.5 16.2448 0.515067 16.3595 0.543241L16.5981 -0.427879ZM16 -0.5H14.7692V0.5H16V-0.5ZM9.23077 -0.5H8V0.5H9.23077V-0.5ZM8 -0.5C6.61929 -0.5 5.5 0.619288 5.5 2H6.5C6.5 1.17157 7.17157 0.5 8 0.5V-0.5ZM5 2L5.00004 2.00082L6.94228 2.478C6.98016 2.32382 7 2.16354 7 2H5ZM5.00082 2.00004L5 2V4C5.16355 4 5.32382 3.98016 5.478 3.94228L5.00082 2.00004ZM5 2H4.53846V4H5V2ZM2.46154 2H2V4H2.46154V2ZM2 2C1.75394 2 1.51347 2.02984 1.28259 2.08656L1.75977 4.0288C1.83571 4.01014 1.91599 4 2 4V2ZM-0.913439 4.28259C-0.970164 4.51347 -1 4.75394 -1 5H1C1 4.91599 1.01014 4.83571 1.0288 4.75977L-0.913439 4.28259ZM-1 5V6.92308H1V5H-1ZM-1 15.5769V17.5H1V15.5769H-1ZM-1 17.5C-1 19.1569 0.343145 20.5 2 20.5V18.5C1.44772 18.5 1 18.0523 1 17.5H-1ZM2 20.5H3.53846V18.5H2V20.5ZM10.4615 20.5H13.5385V18.5H10.4615V20.5ZM20.4615 20.5H22V18.5H20.4615V20.5ZM22 20.5C23.6569 20.5 25 19.1569 25 17.5H23C23 18.0523 22.5523 18.5 22 18.5V20.5ZM25 17.5V15.5769H23V17.5H25ZM25 6.92308V5H23V6.92308H25ZM25 5C25 4.75394 24.9702 4.51347 24.9134 4.28259L22.9712 4.75977C22.9899 4.83571 23 4.91599 23 5H25ZM22.7174 2.08656C22.4865 2.02984 22.2461 2 22 2V4C22.084 4 22.1643 4.01014 22.2402 4.0288L22.7174 2.08656ZM22 2H21.5385V4H22V2ZM19.4615 2H19V4H19.4615V2ZM19 2L18.9992 2.00004L18.522 3.94228C18.6762 3.98016 18.8365 4 19 4V2ZM19 2.00082L19 2H17C17 2.16354 17.0198 2.32382 17.0577 2.478L19 2.00082ZM19 2C19 1.75394 18.9702 1.51347 18.9134 1.28259L16.9712 1.75977C16.9899 1.83571 17 1.91599 17 2H19ZM16.7174 -0.913439C16.4865 -0.970164 16.2461 -1 16 -1V1C16.084 1 16.1643 1.01014 16.2402 1.0288L16.7174 -0.913439ZM16 -1H14.7692V1H16V-1ZM9.23077 -1H8V1H9.23077V-1ZM8 -1C6.34315 -1 5 0.343146 5 2H7C7 1.44772 7.44772 1 8 1V-1Z" fill="#8059EE" mask="url(#path-1-inside-1_10475_1011)"/>
<circle cx="12" cy="10.5" r="4" stroke="#8059EE" stroke-dasharray="4 9"/>
</svg>
