<svg width="24" height="20" viewBox="0 0 24 20" fill="none" xmlns="http://www.w3.org/2000/svg">
<mask id="path-1-inside-1_10475_1018" fill="white">
<path fill-rule="evenodd" clip-rule="evenodd" d="M8 0C6.89543 0 6 0.89543 6 2C6 2.55228 5.55228 3 5 3H2C0.895431 3 0 3.89543 0 5V17.5C0 18.6046 0.89543 19.5 2 19.5H22C23.1046 19.5 24 18.6046 24 17.5V5C24 3.89543 23.1046 3 22 3H19C18.4477 3 18 2.55228 18 2C18 0.895431 17.1046 0 16 0H8Z"/>
</mask>
<path d="M7 2C7 1.44772 7.44772 1 8 1V-1C6.34315 -1 5 0.343146 5 2H7ZM2 4H5V2H2V4ZM1 5C1 4.44772 1.44772 4 2 4V2C0.343146 2 -1 3.34315 -1 5H1ZM1 17.5V5H-1V17.5H1ZM2 18.5C1.44772 18.5 1 18.0523 1 17.5H-1C-1 19.1569 0.343145 20.5 2 20.5V18.5ZM22 18.5H2V20.5H22V18.5ZM23 17.5C23 18.0523 22.5523 18.5 22 18.5V20.5C23.6569 20.5 25 19.1569 25 17.5H23ZM23 5V17.5H25V5H23ZM22 4C22.5523 4 23 4.44771 23 5H25C25 3.34315 23.6569 2 22 2V4ZM19 4H22V2H19V4ZM16 1C16.5523 1 17 1.44772 17 2H19C19 0.343145 17.6569 -1 16 -1V1ZM8 1H16V-1H8V1ZM19 2H17C17 3.10457 17.8954 4 19 4V2ZM5 2V2V4C6.10457 4 7 3.10457 7 2H5Z" fill="#8059EE" mask="url(#path-1-inside-1_10475_1018)"/>
<circle cx="12" cy="10.5" r="4" stroke="#8059EE"/>
</svg>
